<svg width="16" height="16" viewBox="0 0 16 16" fill="none" xmlns="http://www.w3.org/2000/svg">
<path d="M15.5312 8.53258H14.925H3.74563V3.2662C3.74563 2.57204 4.31034 2.00732 5.00447 2.00732C5.55341 2.00732 6.02112 2.36064 6.19287 2.85173C5.33544 3.00782 4.68309 3.75964 4.68309 4.66148V5.11608C4.68309 5.37495 4.89297 5.58483 5.15184 5.58483H8.31228C8.57116 5.58483 8.78103 5.37495 8.78103 5.11608V4.66148C8.78103 3.72032 8.07066 2.94245 7.158 2.8347C6.95694 1.82954 6.06784 1.06982 5.00447 1.06982C3.79341 1.06982 2.80813 2.05511 2.80813 3.2662V8.53258H1.075H0.46875C0.209875 8.53258 0 8.74245 0 9.00133C0 9.2602 0.209875 9.47008 0.46875 9.47008H0.695312L1.13428 11.5386C1.29428 12.2928 1.71231 12.9753 2.31131 13.4605C2.34747 13.4898 2.38422 13.5182 2.42147 13.5459L2.03119 14.2311C1.90306 14.4561 1.98156 14.7423 2.20653 14.8704C2.27975 14.9121 2.35944 14.932 2.43806 14.932C2.60103 14.932 2.75941 14.8468 2.84581 14.6951L3.24484 13.9944C3.62344 14.1372 4.02709 14.213 4.43563 14.213H11.5644C11.9729 14.213 12.3766 14.1372 12.7552 13.9944L13.1542 14.6951C13.2406 14.8468 13.399 14.932 13.5619 14.932C13.6406 14.932 13.7203 14.9121 13.7935 14.8704C14.0184 14.7423 14.0969 14.4561 13.9688 14.2311L13.5785 13.5459C13.6158 13.5182 13.6526 13.4898 13.6887 13.4605C14.2877 12.9753 14.7057 12.2928 14.8657 11.5386L15.3047 9.47008H15.5312C15.7901 9.47008 16 9.2602 16 9.00133C16 8.74245 15.7901 8.53258 15.5312 8.53258ZM7.84341 4.64729H5.62072C5.62831 4.15617 6.03019 3.75895 6.52306 3.75895H6.94103C7.43394 3.75895 7.83581 4.15617 7.84341 4.64729ZM13.9487 11.344C13.7112 12.4632 12.7084 13.2755 11.5643 13.2755H4.43563C3.29156 13.2755 2.28881 12.4632 2.05131 11.344L1.65366 9.47008H14.3463L13.9487 11.344Z" fill="#0056A1"/>
<path d="M7.64456 6.23914C7.64416 6.23914 7.64381 6.23914 7.64341 6.23914C7.38453 6.23976 7.17519 6.4501 7.17578 6.70901L7.17763 7.47886C7.17825 7.73733 7.38797 7.94648 7.64635 7.94648H7.6475C7.90638 7.94586 8.11572 7.73551 8.11513 7.47661L8.11328 6.70676C8.11269 6.44826 7.90294 6.23914 7.64456 6.23914Z" fill="#0056A1"/>
<path d="M5.81822 6.23914C5.55988 6.23914 5.35013 6.44826 5.3495 6.70676L5.34766 7.4766C5.34703 7.73551 5.55641 7.94589 5.81528 7.94648H5.81644C6.07478 7.94648 6.28453 7.73735 6.28516 7.47885L6.287 6.70901C6.28762 6.4501 6.07825 6.23973 5.81938 6.23914C5.819 6.23914 5.81863 6.23914 5.81822 6.23914Z" fill="#0056A1"/>
</svg>
