<svg width="16" height="16" viewBox="0 0 16 16" fill="none" xmlns="http://www.w3.org/2000/svg">
<g clip-path="url(#clip0_10908_96419)">
<path d="M10.8438 9.4375C11.1022 9.4375 11.3125 9.64497 11.3125 9.9H12.25C12.25 9.29162 11.8581 8.77291 11.3125 8.58028V7.5625H10.375V8.58062C9.82941 8.77412 9.4375 9.29516 9.4375 9.90625C9.4375 10.6817 10.0683 11.3125 10.8438 11.3125C11.1022 11.3125 11.3125 11.5228 11.3125 11.7812C11.3125 12.0397 11.1022 12.25 10.8438 12.25C10.5853 12.25 10.375 12.0397 10.375 11.7812H9.4375C9.4375 12.3923 9.82941 12.9134 10.375 13.1069V14.1187H11.3125V13.1069C11.8581 12.9134 12.25 12.3923 12.25 11.7812C12.25 11.0058 11.6192 10.375 10.8438 10.375C10.5853 10.375 10.375 10.1647 10.375 9.90625C10.375 9.64778 10.5853 9.4375 10.8438 9.4375Z" fill="#0056A1"/>
<path d="M10.8438 5.6875C10.6857 5.6875 10.5294 5.69506 10.375 5.70903V2.8125C10.375 1.99966 9.79537 1.26219 8.74294 0.735969C7.79375 0.261375 6.54219 0 5.21875 0C3.89262 0 2.63103 0.260844 1.66634 0.734438C0.591813 1.26203 0 2 0 2.8125V11.3125C0 12.125 0.591813 12.863 1.66634 13.3906C2.63103 13.8642 3.89262 14.125 5.21875 14.125C5.75028 14.125 6.27022 14.0826 6.76922 13.9999C7.71331 15.2159 9.18859 16 10.8438 16C13.6869 16 16 13.6869 16 10.8438C16 8.00059 13.6869 5.6875 10.8438 5.6875ZM2.07953 1.576C2.906 1.17022 4.05019 0.9375 5.21875 0.9375C7.70494 0.9375 9.4375 1.92566 9.4375 2.8125C9.4375 3.69934 7.70494 4.6875 5.21875 4.6875C4.05019 4.6875 2.906 4.45478 2.07953 4.049C1.35375 3.69269 0.9375 3.242 0.9375 2.8125C0.9375 2.383 1.35375 1.93231 2.07953 1.576ZM0.9375 4.44578C1.14762 4.60631 1.391 4.75537 1.66634 4.89056C2.63103 5.36416 3.89262 5.625 5.21875 5.625C6.54219 5.625 7.79375 5.36363 8.74294 4.88903C9.00416 4.75841 9.23616 4.61478 9.4375 4.46022V5.88241C8.50325 6.14756 7.67628 6.67019 7.03819 7.36828C6.46706 7.49713 5.85581 7.5625 5.21875 7.5625C4.05019 7.5625 2.906 7.32978 2.07953 6.924C1.35375 6.56769 0.9375 6.117 0.9375 5.6875V4.44578ZM0.9375 7.32078C1.14762 7.48131 1.391 7.63037 1.66634 7.76556C2.63103 8.23916 3.89262 8.5 5.21875 8.5C5.58066 8.5 5.93569 8.48059 6.28191 8.44253C5.97391 9.02534 5.77434 9.67381 5.71025 10.3611C5.54741 10.3701 5.38322 10.375 5.21875 10.375C4.05019 10.375 2.906 10.1423 2.07953 9.7365C1.35375 9.38019 0.9375 8.9295 0.9375 8.5V7.32078ZM5.21875 13.1875C4.05019 13.1875 2.906 12.9548 2.07953 12.549C1.35375 12.1927 0.9375 11.742 0.9375 11.3125V10.1333C1.14762 10.2938 1.391 10.4428 1.66634 10.578C2.63103 11.0517 3.89262 11.3125 5.21875 11.3125C5.38219 11.3125 5.54559 11.3084 5.70794 11.3004C5.76544 11.9525 5.94478 12.5701 6.22312 13.1303C5.89625 13.168 5.56053 13.1875 5.21875 13.1875ZM10.8438 15.0625C8.51753 15.0625 6.625 13.17 6.625 10.8438C6.625 8.51753 8.51753 6.625 10.8438 6.625C13.17 6.625 15.0625 8.51753 15.0625 10.8438C15.0625 13.17 13.17 15.0625 10.8438 15.0625Z" fill="#0056A1"/>
</g>
<defs>
<clipPath id="clip0_10908_96419">
<rect width="16" height="16" fill="white"/>
</clipPath>
</defs>
</svg>
