<svg width="16" height="16" viewBox="0 0 16 16" fill="none" xmlns="http://www.w3.org/2000/svg">
<path d="M8 13.2727C8.13845 13.2727 8.27379 13.2327 8.3889 13.1578C8.50401 13.0829 8.59373 12.9764 8.64672 12.8518C8.6997 12.7272 8.71356 12.5902 8.68655 12.4579C8.65954 12.3256 8.59287 12.2041 8.49497 12.1088C8.39708 12.0134 8.27235 11.9485 8.13656 11.9222C8.00078 11.8959 7.86003 11.9094 7.73212 11.961C7.60421 12.0126 7.49489 12.1 7.41797 12.2121C7.34105 12.3242 7.3 12.4561 7.3 12.5909C7.3 12.7717 7.37375 12.9452 7.50503 13.073C7.6363 13.2009 7.81435 13.2727 8 13.2727ZM11.5 13.2727C11.6384 13.2727 11.7738 13.2327 11.8889 13.1578C12.004 13.0829 12.0937 12.9764 12.1467 12.8518C12.1997 12.7272 12.2136 12.5902 12.1865 12.4579C12.1595 12.3256 12.0929 12.2041 11.995 12.1088C11.8971 12.0134 11.7724 11.9485 11.6366 11.9222C11.5008 11.8959 11.36 11.9094 11.2321 11.961C11.1042 12.0126 10.9949 12.1 10.918 12.2121C10.8411 12.3242 10.8 12.4561 10.8 12.5909C10.8 12.7717 10.8737 12.9452 11.005 13.073C11.1363 13.2009 11.3143 13.2727 11.5 13.2727ZM11.5 10.5455C11.6384 10.5455 11.7738 10.5055 11.8889 10.4305C12.004 10.3556 12.0937 10.2491 12.1467 10.1246C12.1997 9.99997 12.2136 9.86288 12.1865 9.73062C12.1595 9.59836 12.0929 9.47687 11.995 9.38152C11.8971 9.28616 11.7724 9.22123 11.6366 9.19492C11.5008 9.16861 11.36 9.18211 11.2321 9.23372C11.1042 9.28532 10.9949 9.37271 10.918 9.48484C10.8411 9.59696 10.8 9.72879 10.8 9.86364C10.8 10.0445 10.8737 10.2179 11.005 10.3458C11.1363 10.4736 11.3143 10.5455 11.5 10.5455ZM8 10.5455C8.13845 10.5455 8.27379 10.5055 8.3889 10.4305C8.50401 10.3556 8.59373 10.2491 8.64672 10.1246C8.6997 9.99997 8.71356 9.86288 8.68655 9.73062C8.65954 9.59836 8.59287 9.47687 8.49497 9.38152C8.39708 9.28616 8.27235 9.22123 8.13656 9.19492C8.00078 9.16861 7.86003 9.18211 7.73212 9.23372C7.60421 9.28532 7.49489 9.37271 7.41797 9.48484C7.34105 9.59696 7.3 9.72879 7.3 9.86364C7.3 10.0445 7.37375 10.2179 7.50503 10.3458C7.6363 10.4736 7.81435 10.5455 8 10.5455ZM12.9 2.36364H12.2V1.68182C12.2 1.50099 12.1263 1.32757 11.995 1.1997C11.8637 1.07183 11.6857 1 11.5 1C11.3143 1 11.1363 1.07183 11.005 1.1997C10.8737 1.32757 10.8 1.50099 10.8 1.68182V2.36364H5.2V1.68182C5.2 1.50099 5.12625 1.32757 4.99497 1.1997C4.8637 1.07183 4.68565 1 4.5 1C4.31435 1 4.1363 1.07183 4.00503 1.1997C3.87375 1.32757 3.8 1.50099 3.8 1.68182V2.36364H3.1C2.54305 2.36364 2.0089 2.57914 1.61508 2.96274C1.22125 3.34633 1 3.8666 1 4.40909V13.9545C1 14.497 1.22125 15.0173 1.61508 15.4009C2.0089 15.7845 2.54305 16 3.1 16H12.9C13.457 16 13.9911 15.7845 14.3849 15.4009C14.7788 15.0173 15 14.497 15 13.9545V4.40909C15 3.8666 14.7788 3.34633 14.3849 2.96274C13.9911 2.57914 13.457 2.36364 12.9 2.36364ZM13.6 13.9545C13.6 14.1354 13.5263 14.3088 13.395 14.4367C13.2637 14.5645 13.0857 14.6364 12.9 14.6364H3.1C2.91435 14.6364 2.7363 14.5645 2.60503 14.4367C2.47375 14.3088 2.4 14.1354 2.4 13.9545V7.81818H13.6V13.9545ZM13.6 6.45455H2.4V4.40909C2.4 4.22826 2.47375 4.05484 2.60503 3.92697C2.7363 3.79911 2.91435 3.72727 3.1 3.72727H3.8V4.40909C3.8 4.58992 3.87375 4.76334 4.00503 4.89121C4.1363 5.01907 4.31435 5.09091 4.5 5.09091C4.68565 5.09091 4.8637 5.01907 4.99497 4.89121C5.12625 4.76334 5.2 4.58992 5.2 4.40909V3.72727H10.8V4.40909C10.8 4.58992 10.8737 4.76334 11.005 4.89121C11.1363 5.01907 11.3143 5.09091 11.5 5.09091C11.6857 5.09091 11.8637 5.01907 11.995 4.89121C12.1263 4.76334 12.2 4.58992 12.2 4.40909V3.72727H12.9C13.0857 3.72727 13.2637 3.79911 13.395 3.92697C13.5263 4.05484 13.6 4.22826 13.6 4.40909V6.45455ZM4.5 10.5455C4.63845 10.5455 4.77378 10.5055 4.8889 10.4305C5.00401 10.3556 5.09373 10.2491 5.14672 10.1246C5.1997 9.99997 5.21356 9.86288 5.18655 9.73062C5.15954 9.59836 5.09287 9.47687 4.99497 9.38152C4.89708 9.28616 4.77235 9.22123 4.63656 9.19492C4.50078 9.16861 4.36003 9.18211 4.23212 9.23372C4.10421 9.28532 3.99489 9.37271 3.91797 9.48484C3.84105 9.59696 3.8 9.72879 3.8 9.86364C3.8 10.0445 3.87375 10.2179 4.00503 10.3458C4.1363 10.4736 4.31435 10.5455 4.5 10.5455ZM4.5 13.2727C4.63845 13.2727 4.77378 13.2327 4.8889 13.1578C5.00401 13.0829 5.09373 12.9764 5.14672 12.8518C5.1997 12.7272 5.21356 12.5902 5.18655 12.4579C5.15954 12.3256 5.09287 12.2041 4.99497 12.1088C4.89708 12.0134 4.77235 11.9485 4.63656 11.9222C4.50078 11.8959 4.36003 11.9094 4.23212 11.961C4.10421 12.0126 3.99489 12.1 3.91797 12.2121C3.84105 12.3242 3.8 12.4561 3.8 12.5909C3.8 12.7717 3.87375 12.9452 4.00503 13.073C4.1363 13.2009 4.31435 13.2727 4.5 13.2727Z" fill="#0056A1"/>
</svg>
