<svg width="16" height="17" viewBox="0 0 16 17" fill="none" xmlns="http://www.w3.org/2000/svg">
<path d="M6.19203 9.35967L2.66536 12.893L2.66536 11.833C2.66536 11.6562 2.59513 11.4866 2.4701 11.3616C2.34508 11.2366 2.17551 11.1663 1.9987 11.1663C1.82189 11.1663 1.65232 11.2366 1.52729 11.3616C1.40227 11.4866 1.33203 11.6562 1.33203 11.833L1.33203 14.4997C1.33308 14.5868 1.3512 14.6729 1.38536 14.753C1.45301 14.9159 1.58246 15.0454 1.74536 15.113C1.82551 15.1472 1.91158 15.1653 1.9987 15.1663H4.66536C4.84218 15.1663 5.01174 15.0961 5.13677 14.9711C5.26179 14.8461 5.33203 14.6765 5.33203 14.4997C5.33203 14.3229 5.26179 14.1533 5.13677 14.0283C5.01174 13.9032 4.84218 13.833 4.66536 13.833H3.60536L7.1387 10.3063C7.26423 10.1808 7.33476 10.0105 7.33476 9.83301C7.33476 9.65547 7.26423 9.48521 7.1387 9.35967C7.01316 9.23414 6.8429 9.16361 6.66536 9.16361C6.48783 9.16361 6.31757 9.23414 6.19203 9.35967ZM14.612 2.24634C14.5444 2.08344 14.4149 1.95399 14.252 1.88634C14.1719 1.85218 14.0858 1.83406 13.9987 1.83301L11.332 1.83301C11.1552 1.83301 10.9857 1.90325 10.8606 2.02827C10.7356 2.15329 10.6654 2.32286 10.6654 2.49967C10.6654 2.67649 10.7356 2.84605 10.8606 2.97108C10.9857 3.0961 11.1552 3.16634 11.332 3.16634L12.392 3.16634L8.8587 6.69301C8.79621 6.75498 8.74662 6.82872 8.71277 6.90996C8.67892 6.9912 8.6615 7.07833 8.6615 7.16634C8.6615 7.25435 8.67892 7.34149 8.71277 7.42273C8.74662 7.50396 8.79621 7.5777 8.8587 7.63967C8.92067 7.70216 8.99441 7.75176 9.07565 7.7856C9.15689 7.81945 9.24402 7.83687 9.33203 7.83687C9.42004 7.83687 9.50718 7.81945 9.58842 7.7856C9.66965 7.75176 9.74339 7.70216 9.80536 7.63967L13.332 4.10634V5.16634C13.332 5.34315 13.4023 5.51272 13.5273 5.63775C13.6523 5.76277 13.8219 5.83301 13.9987 5.83301C14.1755 5.83301 14.3451 5.76277 14.4701 5.63775C14.5951 5.51272 14.6654 5.34315 14.6654 5.16634V2.49967C14.6643 2.41256 14.6462 2.32649 14.612 2.24634Z" fill="#0056A1"/>
</svg>
