<svg width="16" height="17" viewBox="0 0 16 17" fill="none" xmlns="http://www.w3.org/2000/svg">
<g clip-path="url(#clip0_10908_96414)">
<path d="M6.66667 8.02622L3.13667 8.02955L3.66667 7.49955C3.75507 7.41115 3.80474 7.29124 3.80474 7.16622C3.80474 7.04119 3.75507 6.92129 3.66667 6.83288C3.57826 6.74448 3.45836 6.69481 3.33333 6.69481C3.20831 6.69481 3.08841 6.74448 3 6.83288L1.66667 8.16622C1.62364 8.2103 1.58966 8.2624 1.56667 8.31955C1.51904 8.43483 1.51904 8.56428 1.56667 8.67955C1.58966 8.7367 1.62364 8.7888 1.66667 8.83288L3 10.1662C3.08841 10.2546 3.20831 10.3043 3.33333 10.3043C3.45836 10.3043 3.57826 10.2546 3.66667 10.1662C3.75507 10.0778 3.80474 9.95791 3.80474 9.83288C3.80474 9.70786 3.75507 9.58796 3.66667 9.49955L3.13667 8.96955L6.66667 8.97288C6.7922 8.97288 6.9126 8.92301 7.00136 8.83425C7.09013 8.74548 7.14 8.62509 7.14 8.49955C7.14 8.37401 7.09013 8.25362 7.00136 8.16485C6.9126 8.07609 6.7922 8.02622 6.66667 8.02622ZM8.47 3.63622L9 4.16622C9.08841 4.25462 9.20831 4.30429 9.33333 4.30429C9.45836 4.30429 9.57826 4.25462 9.66667 4.16622C9.75507 4.07781 9.80474 3.95791 9.80474 3.83289C9.80474 3.70786 9.75507 3.58796 9.66667 3.49955L8.33333 2.16622C8.28925 2.12319 8.23715 2.08921 8.18 2.06622C8.06473 2.01859 7.93527 2.01859 7.82 2.06622C7.76285 2.08921 7.71075 2.12319 7.66667 2.16622L6.33333 3.49955C6.24493 3.58796 6.19526 3.70786 6.19526 3.83289C6.19526 3.95791 6.24493 4.07781 6.33333 4.16622C6.42174 4.25462 6.54164 4.30429 6.66667 4.30429C6.79169 4.30429 6.91159 4.25462 7 4.16622L7.53 3.63622L7.52667 7.16622C7.52641 7.22845 7.53848 7.29011 7.56218 7.34766C7.58587 7.4052 7.62073 7.45748 7.66473 7.50148C7.70874 7.54549 7.76102 7.58034 7.81856 7.60404C7.8761 7.62774 7.93777 7.63981 8 7.63955C8.06223 7.63981 8.1239 7.62774 8.18144 7.60404C8.23898 7.58034 8.29126 7.54549 8.33527 7.50148C8.37927 7.45748 8.41413 7.4052 8.43782 7.34766C8.46152 7.29011 8.47359 7.22845 8.47333 7.16622L8.47 3.63622ZM9.66667 12.8329C9.57826 12.7445 9.45836 12.6948 9.33333 12.6948C9.20831 12.6948 9.0884 12.7445 9 12.8329L8.47 13.3629L8.47333 9.83288C8.47333 9.70735 8.42346 9.58695 8.3347 9.49819C8.24593 9.40942 8.12554 9.35955 8 9.35955C7.87446 9.35955 7.75407 9.40942 7.6653 9.49819C7.57654 9.58695 7.52667 9.70735 7.52667 9.83288L7.53 13.3629L7 12.8329C6.9116 12.7445 6.79169 12.6948 6.66667 12.6948C6.54164 12.6948 6.42174 12.7445 6.33333 12.8329C6.24493 12.9213 6.19526 13.0412 6.19526 13.1662C6.19526 13.2912 6.24493 13.4111 6.33333 13.4995L7.66667 14.8329C7.71075 14.8759 7.76285 14.9099 7.82 14.9329C7.93527 14.9805 8.06473 14.9805 8.18 14.9329C8.23715 14.9099 8.28925 14.8759 8.33333 14.8329L9.66667 13.4995C9.75507 13.4111 9.80474 13.2912 9.80474 13.1662C9.80474 13.0412 9.75507 12.9213 9.66667 12.8329ZM14.4333 8.67955C14.481 8.56428 14.481 8.43483 14.4333 8.31955C14.4103 8.2624 14.3764 8.2103 14.3333 8.16622L13 6.83288C12.9116 6.74448 12.7917 6.69481 12.6667 6.69481C12.5416 6.69481 12.4217 6.74448 12.3333 6.83288C12.2449 6.92129 12.1953 7.04119 12.1953 7.16622C12.1953 7.29124 12.2449 7.41115 12.3333 7.49955L12.8633 8.02955L9.33333 8.02622C9.2711 8.02596 9.20944 8.03803 9.15189 8.06173C9.09435 8.08542 9.04207 8.12028 8.99807 8.16428C8.95406 8.20829 8.91921 8.26057 8.89551 8.31811C8.87181 8.37566 8.85974 8.43732 8.86 8.49955C8.85974 8.56178 8.87181 8.62345 8.89551 8.68099C8.91921 8.73853 8.95406 8.79081 8.99807 8.83482C9.04207 8.87882 9.09435 8.91368 9.15189 8.93737C9.20944 8.96107 9.2711 8.97314 9.33333 8.97288L12.8633 8.96955L12.3333 9.49955C12.2449 9.58796 12.1953 9.70786 12.1953 9.83288C12.1953 9.95791 12.2449 10.0778 12.3333 10.1662C12.4217 10.2546 12.5416 10.3043 12.6667 10.3043C12.7917 10.3043 12.9116 10.2546 13 10.1662L14.3333 8.83288C14.3764 8.7888 14.4103 8.7367 14.4333 8.67955Z" fill="#0056A1"/>
</g>
<defs>
<clipPath id="clip0_10908_96414">
<rect width="11.3137" height="11.3137" fill="white" transform="translate(8 0.5) rotate(45)"/>
</clipPath>
</defs>
</svg>
