<svg width="42" height="42" viewBox="0 0 42 42" fill="none" xmlns="http://www.w3.org/2000/svg">
<path d="M21 0C12.8541 0 6.23438 6.61992 6.23438 14.7656C6.23438 17.5219 6.99743 20.2044 8.4493 22.5177L19.9991 41.4188C20.1961 41.7387 20.4914 41.9357 20.836 41.9849C21.3034 42.0587 21.8205 41.8619 22.0911 41.3943L33.6739 22.3207C35.0519 20.0567 35.7656 17.4235 35.7656 14.7656C35.7656 6.61992 29.1459 0 21 0ZM21 22.1484C16.8658 22.1484 13.6172 18.8016 13.6172 14.7656C13.6172 10.705 16.9394 7.38281 21 7.38281C25.0606 7.38281 28.3828 10.705 28.3828 14.7656C28.3828 18.777 25.1835 22.1484 21 22.1484Z" fill="#E10C0F"/>
</svg>
