<svg width="12" height="12" viewBox="0 0 12 12" fill="none" xmlns="http://www.w3.org/2000/svg">
<mask id="mask0_10900_96095" style="mask-type:alpha" maskUnits="userSpaceOnUse" x="0" y="0" width="12" height="12">
<rect width="12" height="12" fill="#D9D9D9"/>
</mask>
<g mask="url(#mask0_10900_96095)">
<path d="M5.99421 8.95539C6.14447 8.95539 6.2714 8.90355 6.375 8.79987C6.4786 8.6961 6.5304 8.56904 6.5304 8.41868C6.5304 8.26842 6.47851 8.14149 6.37474 8.0379C6.27097 7.93439 6.14395 7.88263 5.99368 7.88263C5.84342 7.88263 5.71649 7.93452 5.61289 8.03829C5.5093 8.14206 5.4575 8.26908 5.4575 8.41934C5.4575 8.56961 5.50939 8.69654 5.61316 8.80013C5.71693 8.90364 5.84395 8.95539 5.99421 8.95539ZM5.62145 7.07079H6.36237C6.36912 6.81175 6.40706 6.60478 6.47618 6.44987C6.54539 6.29504 6.71325 6.08978 6.97974 5.83408C7.21123 5.60259 7.38851 5.38882 7.51158 5.19276C7.63474 4.9968 7.69632 4.76535 7.69632 4.49842C7.69632 4.04535 7.53355 3.69145 7.20803 3.43671C6.88241 3.18206 6.49728 3.05474 6.05263 3.05474C5.61333 3.05474 5.24982 3.17197 4.96211 3.40645C4.6743 3.64092 4.46899 3.91706 4.34618 4.23487L5.02224 4.50605C5.08636 4.33132 5.19601 4.1611 5.35118 3.9954C5.50636 3.82978 5.7368 3.74697 6.0425 3.74697C6.35355 3.74697 6.58347 3.83215 6.73224 4.0025C6.8811 4.17294 6.95553 4.36035 6.95553 4.56474C6.95553 4.7436 6.90456 4.90724 6.80263 5.05566C6.70079 5.20408 6.57092 5.34746 6.41303 5.48579C6.0675 5.79754 5.84921 6.04623 5.75816 6.23184C5.66702 6.41737 5.62145 6.69702 5.62145 7.07079ZM6.00092 11C5.30934 11 4.6593 10.8688 4.05079 10.6063C3.44228 10.3439 2.91298 9.98768 2.46289 9.53776C2.01281 9.08785 1.65645 8.55877 1.39382 7.95053C1.13127 7.34228 1 6.69241 1 6.00092C1 5.30934 1.13123 4.6593 1.39368 4.05079C1.65614 3.44228 2.01232 2.91298 2.46224 2.46289C2.91215 2.01281 3.44123 1.65645 4.04947 1.39382C4.65772 1.13127 5.30759 1 5.99908 1C6.69066 1 7.3407 1.13123 7.94921 1.39368C8.55772 1.65614 9.08702 2.01232 9.53711 2.46224C9.98719 2.91215 10.3436 3.44123 10.6062 4.04947C10.8687 4.65772 11 5.30759 11 5.99908C11 6.69066 10.8688 7.3407 10.6063 7.94921C10.3439 8.55772 9.98768 9.08702 9.53776 9.53711C9.08785 9.98719 8.55877 10.3436 7.95053 10.6062C7.34228 10.8687 6.69241 11 6.00092 11ZM6 10.2105C7.17544 10.2105 8.17105 9.80263 8.98684 8.98684C9.80263 8.17105 10.2105 7.17544 10.2105 6C10.2105 4.82456 9.80263 3.82895 8.98684 3.01316C8.17105 2.19737 7.17544 1.78947 6 1.78947C4.82456 1.78947 3.82895 2.19737 3.01316 3.01316C2.19737 3.82895 1.78947 4.82456 1.78947 6C1.78947 7.17544 2.19737 8.17105 3.01316 8.98684C3.82895 9.80263 4.82456 10.2105 6 10.2105Z" fill="white" fill-opacity="0.8"/>
</g>
</svg>
